<?xml version="1.0" encoding="UTF-8" standalone="no"?>
<!-- Generator: Adobe Illustrator 26.3.0, SVG Export Plug-In . SVG Version: 6.00 Build 0)  -->

<svg
   version="1.1"
   x="0px"
   y="0px"
   viewBox="0 0 1156.2729 405.80499"
   xml:space="preserve"
   id="svg79"
   sodipodi:docname="x-tech-logo-white.svg"
   width="1156.2729"
   height="405.80499"
   inkscape:version="1.2.1 (9c6d41e410, 2022-07-14)"
   xmlns:inkscape="http://www.inkscape.org/namespaces/inkscape"
   xmlns:sodipodi="http://sodipodi.sourceforge.net/DTD/sodipodi-0.dtd"
   xmlns="http://www.w3.org/2000/svg"
   xmlns:svg="http://www.w3.org/2000/svg"><defs
   id="defs83">
	
	
	
	
	
	
</defs><sodipodi:namedview
   id="namedview81"
   pagecolor="#ffffff"
   bordercolor="#000000"
   borderopacity="0.25"
   inkscape:showpageshadow="2"
   inkscape:pageopacity="0.0"
   inkscape:pagecheckerboard="0"
   inkscape:deskcolor="#d1d1d1"
   showgrid="false"
   inkscape:zoom="0.31158981"
   inkscape:cx="2538.5939"
   inkscape:cy="696.42842"
   inkscape:window-width="3840"
   inkscape:window-height="2054"
   inkscape:window-x="2149"
   inkscape:window-y="372"
   inkscape:window-maximized="1"
   inkscape:current-layer="svg79" />
<g
   id="Layer_2"
   transform="translate(1223.137,818.403)"
   style="fill:#ffffff;fill-opacity:1;stroke:#000000;stroke-opacity:0.40217391">
	<g
   id="Guides"
   style="fill:#ffffff;fill-opacity:1;stroke:#000000;stroke-opacity:0.40217391">
	</g>
	<g
   id="Guides_00000134214728018017362120000016114261675756291484_"
   style="fill:#ffffff;fill-opacity:1;stroke:#000000;stroke-opacity:0.40217391">
	</g>
	<g
   id="Guides_00000022553905183659983140000008838541984796140432_"
   style="fill:#ffffff;fill-opacity:1;stroke:#000000;stroke-opacity:0.40217391">
	</g>
</g>
<g
   id="g76"
   transform="translate(1223.137,818.403)"
   style="fill:#ffffff;fill-opacity:1;stroke:#000000;stroke-opacity:0.40217391">
		<g
   id="g70"
   style="fill:#ffffff;fill-opacity:1;stroke:#000000;stroke-opacity:0.40217391">
			<path
   d="m -803.979,-583.187 v -25.676 h 117.419 v 25.676 z"
   id="path60"
   style="fill:#ffffff;fill-opacity:1;stroke:#000000;stroke-opacity:0.40217391" />
			<path
   d="m -591.069,-512.215 c -14.042,0 -25.199,-3.412 -33.466,-10.241 -8.272,-6.826 -12.406,-18.992 -12.406,-36.495 v -70.684 h -24.522 v -25.677 h 24.522 l 3.751,-36.351 h 26.83 v 36.351 h 40.391 v 25.677 h -40.391 v 70.684 c 0,7.887 1.682,13.32 5.05,16.3 3.363,2.985 9.182,4.472 17.454,4.472 h 16.445 v 25.965 h -23.658 z"
   id="path62"
   style="fill:#ffffff;fill-opacity:1;stroke:#000000;stroke-opacity:0.40217391" />
			<path
   d="m -471.338,-508.754 c -14.043,0 -26.498,-3.128 -37.362,-9.376 -10.869,-6.248 -19.378,-14.953 -25.532,-26.109 -6.157,-11.153 -9.231,-24.136 -9.231,-38.948 0,-15.002 3.029,-28.174 9.088,-39.524 6.058,-11.347 14.52,-20.196 25.387,-26.542 10.864,-6.347 23.514,-9.521 37.938,-9.521 14.038,0 26.254,3.128 36.641,9.376 10.385,6.252 18.464,14.569 24.233,24.956 5.771,10.386 8.655,21.831 8.655,34.332 0,1.925 -0.05,3.993 -0.144,6.202 -0.099,2.214 -0.244,4.667 -0.433,7.357 h -111.363 c 0.961,13.848 5.527,24.379 13.705,31.591 8.173,7.212 17.643,10.819 28.418,10.819 8.655,0 15.912,-1.971 21.782,-5.915 5.864,-3.94 10.241,-9.277 13.125,-16.013 h 30.582 c -3.85,13.465 -11.496,24.717 -22.936,33.755 -11.446,9.044 -25.631,13.56 -42.553,13.56 z m 0,-124.92 c -10.197,0 -19.236,3.029 -27.121,9.087 -7.887,6.058 -12.693,15.147 -14.424,27.263 h 80.78 c -0.578,-11.153 -4.521,-20.002 -11.829,-26.542 -7.312,-6.536 -16.444,-9.808 -27.406,-9.808 z"
   id="path64"
   style="fill:#ffffff;fill-opacity:1;stroke:#000000;stroke-opacity:0.40217391" />
			<path
   d="m -301.987,-508.754 c -14.041,0 -26.592,-3.173 -37.649,-9.52 -11.063,-6.347 -19.718,-15.146 -25.965,-26.397 -6.253,-11.252 -9.376,-24.28 -9.376,-39.092 0,-14.809 3.123,-27.841 9.376,-39.093 6.247,-11.252 14.902,-20.051 25.965,-26.397 11.057,-6.347 23.608,-9.521 37.649,-9.521 17.693,0 32.552,4.616 44.572,13.848 12.019,9.232 19.763,21.737 23.225,37.505 h -32.023 c -1.925,-7.884 -6.157,-14.037 -12.694,-18.464 -6.54,-4.422 -14.235,-6.635 -23.079,-6.635 -7.501,0 -14.426,1.875 -20.772,5.626 -6.347,3.751 -11.446,9.232 -15.291,16.444 -3.85,7.213 -5.769,16.111 -5.769,26.687 0,10.58 1.92,19.472 5.769,26.686 3.845,7.212 8.944,12.742 15.291,16.589 6.346,3.85 13.271,5.769 20.772,5.769 8.845,0 16.539,-2.209 23.079,-6.636 6.537,-4.421 10.77,-10.674 12.694,-18.751 h 32.023 c -3.272,15.388 -10.963,27.794 -23.079,37.217 -12.117,9.426 -27.025,14.135 -44.718,14.135 z"
   id="path66"
   style="fill:#ffffff;fill-opacity:1;stroke:#000000;stroke-opacity:0.40217391" />
			<path
   d="m -201.016,-512.215 v -207.722 h 30.582 v 87.705 c 4.805,-8.267 11.489,-14.759 20.05,-19.473 8.556,-4.711 18.031,-7.069 28.418,-7.069 17.115,0 30.581,5.386 40.389,16.156 9.809,10.774 14.713,26.831 14.713,48.179 v 82.223 h -30.292 v -79.049 c 0,-27.697 -11.062,-41.545 -33.177,-41.545 -11.541,0 -21.112,4.039 -28.707,12.117 -7.6,8.078 -11.395,19.618 -11.395,34.619 v 73.857 h -30.581 z"
   id="path68"
   style="fill:#ffffff;fill-opacity:1;stroke:#000000;stroke-opacity:0.40217391" />
		</g>
		<g
   id="g74"
   style="fill:#ffffff;fill-opacity:1;stroke:#000000;stroke-opacity:0.40217391">
			<path
   style="fill:#ffffff;fill-opacity:1;stroke:#000000;stroke-opacity:0.40217391"
   d="m -1086.709,-643.504 -102.037,-156.282 h 145.981 l 47.331,72.493 47.33,-72.493 h 145.981 L -922.444,-615.5 v 0 l -12.076,18.495 h -73.446 c -3.195,-5.419 -9.076,-9.065 -15.822,-9.065 -10.148,0 -18.374,8.226 -18.374,18.374 0,10.148 8.226,18.374 18.374,18.374 6.745,0 12.625,-3.646 15.821,-9.064 h 83.524 l 13.115,-20.086 24.196,-37.059 v 0 l 5.07,-7.764 v 0 l 114.329,-175.108 h -190.45 l -37.251,57.055 -37.253,-57.055 h -190.45 l 125.311,191.928 z m 182.549,56.008 102.037,156.282 h -145.981 l -47.33,-72.493 -47.331,72.493 h -83.193 l 62.484,-95.701 h 117.094 c 3.216,5.334 9.047,8.913 15.729,8.913 10.147,0 18.374,-8.226 18.374,-18.374 0,-10.148 -8.226,-18.374 -18.374,-18.374 -6.809,0 -12.739,3.713 -15.914,9.216 h -126.988 l -74.64,114.319 h -40.553 l 82.532,-126.408 v 0 l 71.885,-110.1 h 42.872 c 3.195,5.418 9.076,9.064 15.822,9.064 10.148,0 18.374,-8.226 18.374,-18.374 0,-10.148 -8.226,-18.374 -18.374,-18.374 -6.746,0 -12.626,3.646 -15.822,9.065 h -52.95 l -35.135,53.813 -10e-4,-10e-4 -11.117,17.028 -132.477,202.904 h 190.45 l 37.253,-57.055 37.251,57.055 h 190.45 l -125.311,-191.928 z"
   id="path72" />
		</g>
	</g>
</svg>
