<?xml version="1.0" encoding="UTF-8" standalone="no"?>
<!DOCTYPE svg PUBLIC "-//W3C//DTD SVG 1.1//EN" "http://www.w3.org/Graphics/SVG/1.1/DTD/svg11.dtd">
<svg width="100%" height="100%" viewBox="0 0 1603 272" version="1.1" xmlns="http://www.w3.org/2000/svg" xmlns:xlink="http://www.w3.org/1999/xlink" xml:space="preserve" xmlns:serif="http://www.serif.com/" style="fill-rule:evenodd;clip-rule:evenodd;stroke-linejoin:round;stroke-miterlimit:2;">
    <g transform="matrix(1,0,0,1,-1803.38,-592.875)">
        <g transform="matrix(1,0,0,1,1803.38,592.875)">
            <rect id="Page-6" serif:id="Page 6" x="0" y="0" width="1603" height="272" style="fill:none;"/>
            <g id="Page-61" serif:id="Page 6">
                <g id="Layer-2" serif:id="Layer 2">
                </g>
                <g id="Layer-1" serif:id="Layer 1">
                    <g transform="matrix(1,0,0,1,682.34,135.614)">
                        <path d="M0,0.001C0,-26.443 -20.203,-47.929 -46.647,-47.929C-73.274,-47.929 -93.475,-26.443 -93.475,0.001C-93.475,26.445 -73.274,47.931 -46.647,47.931C-20.203,47.931 0,26.445 0,0.001M-108.715,0.001C-108.715,-34.156 -82.088,-61.335 -46.647,-61.335C-11.388,-61.335 15.24,-34.156 15.24,0.001C15.24,34.159 -11.388,61.336 -46.647,61.336C-82.088,61.336 -108.715,34.159 -108.715,0.001" style="fill:white;fill-rule:nonzero;"/>
                    </g>
                    <g transform="matrix(1,0,0,1,793.816,174.547)">
                        <path d="M0,-24.241C0,-43.155 -13.222,-57.112 -31.036,-57.112C-48.113,-57.112 -61.519,-42.972 -61.519,-24.241C-61.519,-5.511 -48.113,8.814 -31.036,8.814C-13.222,8.814 0,-5.142 0,-24.241M-75.477,-68.865L-62.071,-68.865L-62.071,-53.439C-55.458,-65.009 -42.42,-70.702 -27.913,-70.702C-3.122,-70.702 14.323,-50.318 14.323,-24.241C14.323,1.835 -3.122,22.403 -27.913,22.403C-42.054,22.403 -54.91,16.526 -61.519,4.957L-61.519,46.461L-75.477,46.461L-75.477,-68.865Z" style="fill:white;fill-rule:nonzero;"/>
                    </g>
                    <g transform="matrix(1,0,0,1,898.311,155.997)">
                        <path d="M0,-11.199C-1.469,-27.727 -14.139,-39.665 -29.751,-39.665C-44.99,-39.665 -57.48,-27.912 -59.498,-11.199L0,-11.199ZM-74.006,-5.507C-74.006,-31.4 -54.542,-52.152 -29.014,-52.152C-5.14,-52.152 13.774,-31.584 13.774,-6.059C13.774,-3.487 13.406,-0.733 13.406,-0.549L-59.498,-0.549C-57.296,17.265 -43.521,28.467 -26.995,28.467C-16.893,28.467 -6.793,24.977 0.552,18.916L6.613,29.2C-2.938,36.73 -14.875,40.953 -27.177,40.953C-52.52,40.953 -74.006,22.773 -74.006,-5.507" style="fill:white;fill-rule:nonzero;"/>
                    </g>
                    <g transform="matrix(1,0,0,1,931.924,193.277)">
                        <path d="M0,-87.595L13.955,-87.595L13.955,-72.353C20.2,-83.188 31.768,-89.432 44.99,-89.432C67.395,-89.432 77.311,-75.842 77.311,-52.336L77.311,1.837L63.356,1.837L63.356,-50.501C63.356,-67.027 57.296,-75.842 41.135,-75.842C25.159,-75.842 13.955,-63.355 13.955,-48.479L13.955,1.837L0,1.837L0,-87.595Z" style="fill:white;fill-rule:nonzero;"/>
                    </g>
                    <g transform="matrix(1,0,0,1,1033.48,195.115)">
                        <path d="M0,-118.999L13.04,-118.999L42.054,-78.598C48.299,-69.783 61.337,-51.053 61.337,-51.053C61.337,-51.053 74.375,-69.599 80.619,-78.414L109.633,-118.999L122.672,-118.999L122.672,0L107.98,0L107.98,-94.208C107.98,-94.208 104.858,-88.515 99.166,-80.618L61.337,-27.363L23.324,-80.986C17.996,-88.515 14.691,-94.208 14.691,-94.208L14.691,0L0,0L0,-118.999Z" style="fill:white;fill-rule:nonzero;"/>
                    </g>
                    <g transform="matrix(1,0,0,1,1257.71,150.305)">
                        <path d="M0,0.185C0,-18.73 -14.143,-32.87 -32.689,-32.87C-51.235,-32.87 -65.378,-18.73 -65.378,0.185C-65.378,18.915 -51.235,33.056 -32.689,33.056C-14.143,33.056 0,18.915 0,0.185M-79.701,0.185C-79.701,-25.893 -58.949,-46.46 -32.689,-46.46C-6.429,-46.46 14.323,-25.893 14.323,0.185C14.323,26.077 -6.429,46.645 -32.689,46.645C-58.949,46.645 -79.701,26.077 -79.701,0.185" style="fill:white;fill-rule:nonzero;"/>
                    </g>
                    <g transform="matrix(1,0,0,1,1278.65,195.665)">
                        <path d="M0,-89.983L13.774,-89.983L33.974,-31.036C35.995,-24.975 37.096,-17.996 37.096,-17.996C37.096,-17.996 37.829,-24.975 39.666,-30.852L57.848,-89.983L70.886,-89.983L89.248,-30.852C91.085,-24.975 91.822,-17.996 91.822,-17.996C91.822,-17.996 92.739,-24.975 94.944,-31.036L115.144,-89.983L128.914,-89.983L98.063,0L85.945,0L67.396,-59.131C65.742,-64.273 64.457,-72.17 64.457,-72.17C64.457,-72.17 63.356,-64.273 61.703,-59.131L42.789,0L30.852,0L0,-89.983Z" style="fill:white;fill-rule:nonzero;"/>
                    </g>
                    <g transform="matrix(1,0,0,1,1488.01,155.997)">
                        <path d="M0,-11.199C-1.469,-27.727 -14.139,-39.665 -29.747,-39.665C-44.99,-39.665 -57.476,-27.912 -59.498,-11.199L0,-11.199ZM-74.005,-5.507C-74.005,-31.4 -54.538,-52.152 -29.014,-52.152C-5.14,-52.152 13.774,-31.584 13.774,-6.059C13.774,-3.487 13.406,-0.733 13.406,-0.549L-59.498,-0.549C-57.296,17.265 -43.521,28.467 -26.993,28.467C-16.893,28.467 -6.793,24.977 0.552,18.916L6.613,29.2C-2.938,36.73 -14.872,40.953 -27.177,40.953C-52.52,40.953 -74.005,22.773 -74.005,-5.507" style="fill:white;fill-rule:nonzero;"/>
                    </g>
                    <g transform="matrix(1,0,0,1,1521.62,193.277)">
                        <path d="M0,-87.595L13.958,-87.595L13.958,-68.681C19.099,-80.433 30.667,-89.432 48.481,-89.432L48.481,-74.19C27.549,-74.19 13.958,-62.437 13.958,-40.583L13.958,1.837L0,1.837L0,-87.595Z" style="fill:white;fill-rule:nonzero;"/>
                    </g>
                    <g transform="matrix(1,0,0,1,443.663,215.024)">
                        <path d="M0,-168.764C-20.152,-176.383 -55.244,-184.928 -111.279,-184.928C-242.699,-184.928 -327.576,-115.467 -331.286,-106.084L-247.122,-106.084L-207.09,-146.116L-131.381,-146.116C-129.37,-150.874 -124.58,-154.172 -119.043,-153.961C-112.428,-153.71 -106.953,-148.236 -106.702,-141.621C-106.423,-134.295 -112.28,-128.269 -119.543,-128.269C-124.869,-128.269 -129.437,-131.508 -131.387,-136.124L-202.951,-136.124L-232.991,-106.084L-203.807,-106.084C-201.628,-111.243 -196.176,-114.683 -190.053,-113.801C-184.355,-112.98 -179.828,-108.277 -179.194,-102.555C-178.335,-94.801 -184.383,-88.237 -191.964,-88.237C-197.289,-88.237 -201.857,-91.476 -203.807,-96.092L-344.787,-96.092C-355.74,-90.576 -365.733,-85.284 -374.561,-80.449L-337.539,-80.449L-312.563,-55.473L-248.288,-55.473C-246.108,-60.633 -240.657,-64.072 -234.534,-63.19C-228.836,-62.369 -224.309,-57.667 -223.675,-51.945C-222.816,-44.191 -228.863,-37.626 -236.444,-37.626C-241.77,-37.626 -246.338,-40.866 -248.288,-45.481L-316.703,-45.481L-341.678,-70.457L-392.336,-70.457C-396.539,-68.031 -400.269,-65.832 -403.474,-63.913C-410.95,-59.437 -413.042,-49.556 -408.027,-42.43L-392.103,-19.8L-406.696,7.339C-408.842,11.329 -405.952,16.164 -401.422,16.164L-120.831,16.164C-114.427,4.257 -113.081,1.754 -106.677,-10.152C-116.396,-25.067 -122.044,-42.877 -122.044,-62.006C-122.044,-113.716 -80.799,-156.448 -29.394,-157.106C-23.568,-157.181 -12.548,-157.189 -2.134,-157.175C4.528,-157.166 6.231,-166.408 0,-168.764" style="fill:white;fill-rule:nonzero;"/>
                    </g>
                    <g transform="matrix(1,0,0,1,416.751,121.094)">
                        <path d="M0,63.847C-17.631,63.847 -31.924,49.554 -31.924,31.923C-31.924,14.292 -17.631,-0.001 0,-0.001C17.631,-0.001 31.924,14.292 31.924,31.923C31.924,49.554 17.631,63.847 0,63.847M84.791,22.474C82.795,22.474 81.074,21.034 80.763,19.062C78.71,6.077 73.604,-5.886 66.2,-16.078C65.025,-17.697 65.217,-19.931 66.632,-21.345L66.639,-21.352C68.237,-22.951 68.237,-25.544 66.639,-27.143L59.066,-34.715C57.467,-36.314 54.874,-36.314 53.275,-34.715L53.269,-34.708C51.855,-33.294 49.621,-33.101 48.002,-34.277C37.809,-41.681 25.846,-46.787 12.861,-48.839C10.889,-49.151 9.449,-50.871 9.449,-52.869C9.449,-55.13 7.616,-56.963 5.355,-56.963L-5.355,-56.963C-7.616,-56.963 -9.45,-55.13 -9.45,-52.869C-9.45,-50.871 -10.888,-49.151 -12.861,-48.839C-25.846,-46.787 -37.809,-41.681 -48.001,-34.277C-49.619,-33.101 -51.853,-33.294 -53.269,-34.708L-53.275,-34.715C-54.874,-36.314 -57.467,-36.314 -59.065,-34.715L-66.638,-27.143C-68.237,-25.544 -68.237,-22.951 -66.638,-21.352L-66.631,-21.345C-65.217,-19.931 -65.024,-17.696 -66.2,-16.078C-73.604,-5.886 -78.71,6.077 -80.763,19.062C-81.074,21.034 -82.794,22.474 -84.791,22.474C-87.053,22.474 -88.886,24.307 -88.886,26.569L-88.886,37.278C-88.886,39.539 -87.053,41.373 -84.791,41.373C-82.794,41.373 -81.074,42.812 -80.763,44.785C-78.71,57.769 -73.604,69.732 -66.2,79.925C-65.024,81.543 -65.217,83.777 -66.631,85.192L-66.638,85.199C-68.237,86.797 -68.237,89.39 -66.638,90.989L-59.065,98.562C-57.467,100.161 -54.874,100.161 -53.275,98.562L-53.269,98.555C-51.853,97.14 -49.619,96.948 -48.001,98.123C-37.809,105.527 -25.846,110.634 -12.861,112.686C-10.888,112.997 -9.45,114.718 -9.45,116.715C-9.45,118.977 -7.616,120.81 -5.355,120.81L5.355,120.81C7.616,120.81 9.449,118.977 9.449,116.715C9.449,114.718 10.889,112.997 12.861,112.686C25.846,110.634 37.809,105.527 48.002,98.123C49.621,96.948 51.855,97.14 53.269,98.555L53.275,98.562C54.874,100.161 57.467,100.161 59.066,98.562L66.639,90.989C68.237,89.39 68.237,86.798 66.639,85.199L66.632,85.192C65.217,83.777 65.025,81.543 66.2,79.925C73.604,69.732 78.71,57.769 80.763,44.785C81.074,42.812 82.795,41.373 84.791,41.373C87.053,41.373 88.886,39.539 88.886,37.278L88.886,26.569C88.886,24.307 87.053,22.474 84.791,22.474" style="fill:white;fill-rule:nonzero;"/>
                    </g>
                </g>
            </g>
        </g>
    </g>
</svg>
